<svg xmlns="http://www.w3.org/2000/svg" width="139" height="139" viewBox="0 0 139 139"><title>kit-page</title><g fill="none" fill-rule="evenodd"><path fill="#FFECEC" d="M0 0h138.4v138.4H0z"/><path fill="#FF7371" d="M6.5 14.9h53.4v53.3H6.5zM48 72h10.8v10.8H48zm17.8-29.8h19.3V53H65.8zM34.1 72h10.8v10.8H34.1zm-13.8 0h10.8v10.8H20.3zm0 13.2h10.8V96H20.3zM6.5 72h10.8v10.8H6.5zm0 13.2h10.8V96H6.5zm79.7 1H65.8V90h26v-3.8h-5.6zm17-6H65.8V84h42.6v-3.8h-5.2zm0-6H65.8V78h42.6v-3.8h-5.2zm20.4-12.4h-9.8v3.8h14.9v-3.8h-5.1zm-24 0h-9.8v3.8h14.9v-3.8h-5.1zm-24 0h-9.8v3.8h15v-3.8h-5.2zM119 15.3H65.8v6.1H128v-6.1h-9zM66.3 34.2l.9-.5c.3.7.8 1.1 1.4 1.3v-1.8l-.4-.1c-.1 0-.2-.1-.4-.1-.1 0-.2-.1-.4-.2-.1-.1-.3-.2-.4-.3-.1-.1-.2-.2-.3-.4 0-.2-.1-.4-.1-.6 0-.3.1-.6.2-.8.2-.2.3-.4.6-.6.3-.2.7-.3 1.2-.4v-.8h.7v.9c.5 0 .9.2 1.3.4.3.2.6.5.8.8l-.8.6c-.2-.2-.3-.4-.6-.5-.2-.2-.4-.3-.7-.4v1.6l.4.1c.2 0 .4 0 .6.1.1 0 .3.1.5.2.1.1.3.2.4.3.1.1.1.3.2.4.1.2.1.4.1.7 0 .2 0 .5-.2.7-.1.2-.2.4-.4.6-.4.3-.9.5-1.6.5v.8h-.7v-.8c-.5-.1-1-.2-1.4-.5-.4-.3-.7-.7-.9-1.2zm1.4-2.8c0 .4.3.6.9.7v.1-1.5c-.3 0-.5.1-.7.3-.1.1-.2.2-.2.4zm1.6 3.6c.4 0 .7-.1.9-.3.2-.1.3-.3.3-.6 0-.2-.1-.4-.3-.5-.1-.1-.4-.2-.7-.3h-.2V35zm3.2-.8l.8-.5c.3.7.8 1.1 1.4 1.3v-1.8l-.4-.1c-.1 0-.2-.1-.3-.1-.2 0-.3-.1-.4-.2-.2-.1-.3-.2-.4-.3-.2-.1-.3-.2-.3-.4-.1-.2-.2-.4-.2-.6 0-.3.1-.6.2-.8l.6-.6c.3-.2.7-.3 1.2-.4v-.8h.7v.9c.5 0 .9.2 1.3.4.3.2.6.5.8.8l-.8.6c-.1-.2-.3-.4-.5-.5-.3-.2-.5-.3-.8-.4v1.6l.5.1c.2 0 .3 0 .5.1.1 0 .3.1.5.2.1.1.3.2.4.3.1.1.2.3.2.4.1.2.1.4.1.7 0 .2 0 .5-.1.7-.2.2-.3.4-.5.6-.4.3-.9.5-1.6.5v.8h-.7v-.8c-.5-.1-.9-.2-1.4-.5-.4-.3-.7-.7-.8-1.2zm1.3-2.8c0 .4.3.6.9.7v.1-1.5c-.2 0-.5.1-.6.3-.2.1-.3.2-.3.4zm1.6 3.6c.4 0 .7-.1.9-.3.2-.1.3-.3.3-.6 0-.2-.1-.4-.2-.5-.2-.1-.5-.2-.8-.3h-.2V35zM6.5 102.6h29.4V132H6.5zm32.5 0h29.4V132H39zm32.5 0h29.4V132H71.5zm32.7 0h29.4V132h-29.4z"/><path fill="#FFECEC" d="M0 0h138.4v10.8H0z"/><ellipse fill="#FA4A4A" cx="5.2" cy="5.3" rx="1.2" ry="1.2"/><ellipse fill="#FA4A4A" cx="10.1" cy="5.3" rx="1.2" ry="1.2"/><ellipse fill="#FA4A4A" cx="15.8" cy="5.3" rx="1.2" ry="1.2"/></g></svg>