<svg xmlns="http://www.w3.org/2000/svg" xmlns:xlink="http://www.w3.org/1999/xlink" width="649" height="626" viewBox="0 0 649 626"><title>kit-wireframe</title><defs><path id="a" d="M442.9 243.4h174.9v27.4H442.9z"/><mask id="b" x="0" y="0" width="174.9" height="27.4" fill="#fff"><use xlink:href="#a"/></mask></defs><g fill="none" fill-rule="evenodd"><path fill="#FFF" d="M0 0h649v625.1H0z"/><path fill="#E3E3E3" d="M434.7 128.5h190.1v153.6H434.7z"/><path fill="#B4B4B4" d="M478.7 251.1h102.4V263H478.7z"/><path fill="#FFF" d="M442.9 171.9h174.9v26.2H442.9z"/><path fill="#525252" d="M442.9 208.2h174.9v27.4H442.9z"/><use stroke="#B4B4B4" mask="url(#b)" stroke-width="2" xlink:href="#a"/><path fill="#B4B4B4" d="M601.684 191.124l-4.8-9.5h9.6z"/><path d="M448.6 161.4v-1.8c-2.1-.2-3.8-1-4.8-2.3l1-1.3c.8.9 2.1 1.8 3.8 2v-5.1c-2.2-.6-4.4-1.4-4.4-4 0-2.1 1.9-3.7 4.4-3.9v-1.9h1.3v2c1.7.1 3.1.8 4.2 1.9l-1.1 1.3c-.8-.9-1.9-1.5-3.1-1.6v4.6c2.2.6 4.5 1.4 4.5 4.1 0 1.9-1.2 3.9-4.5 4.2v1.8h-1.3zm4-5.8c0-1.4-1.2-2-2.7-2.4v4.8c2-.2 2.7-1.4 2.7-2.4zm-6.6-6.8c0 1.2 1.2 1.7 2.6 2.1v-4.3c-1.5.1-2.6 1-2.6 2.2zm20.2 10.5v-1.5h-6.9c3.9-3.1 6.8-5.8 6.8-8.6s-2.3-4.2-4.7-4.2c-2 0-3.8.8-4.9 2.3l1.1 1.1c.8-1.1 2.1-1.8 3.8-1.8 1.5 0 3 .8 3 2.6 0 2.4-2.8 4.7-7.9 8.7v1.4h9.7zm7.3.3c-1.8 0-3-.7-3.9-1.7l.9-1.3c.7.8 1.5 1.4 3 1.4 2.8 0 4-2.8 4-5.5 0-.2 0-.4-.1-.6-.6 1-2.1 2.2-3.9 2.2-2.6 0-4.6-1.5-4.6-4.5 0-2.4 1.8-4.6 4.9-4.6 3.9 0 5.4 3.5 5.4 7.3s-1.8 7.3-5.7 7.3zm.4-7c1.4 0 2.7-.9 3.5-2.1-.2-1.7-1.1-3.9-3.5-3.9-2.2 0-3.3 1.6-3.3 3 0 2 1.5 3 3.3 3zm8.8 6.9c.7 0 1.2-.5 1.2-1.1 0-.7-.5-1.2-1.2-1.2-.6 0-1.1.5-1.1 1.2 0 .6.5 1.1 1.1 1.1zm8.2.1c-1.8 0-3.1-.7-3.9-1.7l.8-1.3c.8.8 1.6 1.4 3.1 1.4 2.8 0 3.9-2.8 3.9-5.5v-.6c-.6 1-2.2 2.2-4 2.2-2.5 0-4.6-1.5-4.6-4.5 0-2.4 1.9-4.6 5-4.6 3.9 0 5.4 3.5 5.4 7.3s-1.8 7.3-5.7 7.3zm.3-7c1.4 0 2.8-.9 3.6-2.1-.2-1.7-1.1-3.9-3.6-3.9-2.1 0-3.2 1.6-3.2 3 0 2 1.4 3 3.2 3zm12.1 7c-1.7 0-3-.7-3.9-1.7l.9-1.3c.7.8 1.6 1.4 3 1.4 2.9 0 4-2.8 4-5.5v-.6c-.6 1-2.2 2.2-4 2.2-2.5 0-4.6-1.5-4.6-4.5 0-2.4 1.9-4.6 4.9-4.6 4 0 5.5 3.5 5.5 7.3s-1.8 7.3-5.8 7.3zm.4-7c1.4 0 2.8-.9 3.6-2.1-.2-1.7-1.1-3.9-3.6-3.9-2.1 0-3.2 1.6-3.2 3 0 2 1.4 3 3.2 3z" fill="#525252"/><path fill="#B4B4B4" d="M450.1 183.3h29.8v4.8h-29.8z"/><path fill="#FFF" d="M478.7 216.6h102.4v11.9H478.7z"/><path fill="#E3E3E3" d="M368 357h51.6v32.1H368zM26.2 128.5h394.3v221.6H26.2z"/><path fill="#FFF" d="M287.6 285.7v-39.5l-37.4-36.1-46.3 46.5-14.2-14.3-28 28.3v16.7z"/><ellipse fill="#FFF" cx="178.2" cy="210.2" rx="19.4" ry="19.5"/><path fill="#E3E3E3" d="M26.2 357h51.6v32.1H26.2z"/><path fill="#FFF" d="M59.7 379.1v-5.7l-4.9-5.2-6 6.7-1.9-2-3.7 4v2.5z"/><ellipse fill="#FFF" cx="45.4" cy="368.2" rx="2.5" ry="2.8"/><path fill="#E3E3E3" d="M83.4 357H135v32.1H83.4z"/><path fill="#FFF" d="M116.9 379.1v-5.7l-4.9-5.2-6.1 6.7-1.8-2-3.7 4v2.5z"/><ellipse fill="#FFF" cx="102.6" cy="368.2" rx="2.5" ry="2.8"/><path fill="#E3E3E3" d="M140.5 357h51.6v32.1h-51.6z"/><path fill="#FFF" d="M174.1 379.1v-5.7l-5-5.2-6 6.7-1.9-2-3.6 4v2.5z"/><ellipse fill="#FFF" cx="159.7" cy="368.2" rx="2.5" ry="2.8"/><path fill="#E3E3E3" d="M197.7 357h51.6v32.1h-51.6z"/><path fill="#FFF" d="M231.2 379.1v-5.7l-4.9-5.2-6 6.7-1.9-2-3.7 4v2.5z"/><ellipse fill="#FFF" cx="216.9" cy="368.2" rx="2.5" ry="2.8"/><path fill="#E3E3E3" d="M254.8 357h51.6v32.1h-51.6z"/><path fill="#FFF" d="M288.4 379.1v-5.7l-4.9-5.2-6.1 6.7-1.8-2-3.7 4v2.5z"/><ellipse fill="#FFF" cx="274" cy="368.2" rx="2.5" ry="2.8"/><path fill="#E3E3E3" d="M310.8 357h51.6v32.1h-51.6z"/><path fill="#FFF" d="M345.5 379.1v-5.7l-4.9-5.2-6 6.7-1.9-2-3.7 4v2.5z"/><ellipse fill="#FFF" cx="331.2" cy="368.2" rx="2.5" ry="2.8"/><path fill="#E3E3E3" d="M368 357h51.6v32.1H368z"/><path fill="#FFF" d="M402.7 379.1v-5.7l-4.9-5.2-6.1 6.7-1.8-2-3.7 4v2.5z"/><ellipse fill="#FFF" cx="388.4" cy="368.2" rx="2.5" ry="2.8"/><path d="M40 109.5l-7.1-8.2 6.5-7.5h-2.5l-6.9 8.1v-8.1h-1.9v15.7H30v-5.3l1.6-1.7 5.9 7H40zm11.5 0v-8c0-2.4-1.2-3.6-3.6-3.6-1.7 0-3.2.9-4 1.9v-1.6h-1.8v11.3h1.8v-8.3c.6-.9 1.9-1.7 3.3-1.7 1.5 0 2.6.6 2.6 2.6v7.4h1.7zm8.5.3c-3.4 0-5.6-2.7-5.6-6s2.2-5.9 5.6-5.9c3.5 0 5.6 2.6 5.6 5.9 0 3.3-2.1 6-5.6 6zm0-1.6c2.4 0 3.8-2.1 3.8-4.4 0-2.3-1.4-4.3-3.8-4.3s-3.7 2-3.7 4.3 1.3 4.4 3.7 4.4zm11.4 1.6c1 0 1.6-.3 2.1-.8l-.6-1.3c-.2.3-.6.5-1.1.5-.8 0-1.2-.6-1.2-1.5v-7h2.3v-1.5h-2.3v-3.1h-1.8v3.1H67v1.5h1.8v7.4c0 1.7.9 2.7 2.6 2.7zm6.9 0c1 0 1.6-.3 2.1-.8l-.5-1.3c-.3.3-.7.5-1.2.5-.8 0-1.2-.6-1.2-1.5v-7h2.3v-1.5h-2.3v-3.1h-1.8v3.1h-1.8v1.5h1.8v7.4c0 1.7.9 2.7 2.6 2.7zm9.1 0c-3.3 0-5.8-2.4-5.8-6 0-3.3 2.4-5.9 5.6-5.9 3.4 0 5.5 2.7 5.5 6.1v.4h-9.2c.2 2.1 1.6 3.9 4.1 3.9 1.3 0 2.6-.5 3.5-1.4l.8 1.1c-1.1 1.1-2.6 1.8-4.5 1.8zm3.5-6.7c0-1.7-1.1-3.8-3.7-3.8-2.4 0-3.6 2.1-3.7 3.8h7.4zm14.6 6.4h-1.8v-1.7c-.8 1.2-2.2 2-3.8 2-3 0-5.1-2.3-5.1-6 0-3.6 2.1-5.9 5.1-5.9 1.5 0 2.9.7 3.8 2v-6.1h1.8v15.7zm-5.2-1.3c1.4 0 2.8-.8 3.4-1.8v-5.1c-.6-1-2-1.8-3.4-1.8-2.3 0-3.6 1.8-3.6 4.3s1.3 4.4 3.6 4.4zm17.4 1.6c2.8 0 4.9-1.6 4.9-5v-11h-1.9v11c0 1.9-1.2 3.2-3.2 3.2-1.3 0-2.2-.7-2.9-1.5l-1 1.5c1.1 1.2 2.4 1.8 4.1 1.8zm13.7 0c-3.4 0-5.8-2.4-5.8-6 0-3.3 2.3-5.9 5.6-5.9 3.4 0 5.4 2.7 5.4 6.1v.4h-9.1c.1 2.1 1.6 3.9 4 3.9 1.3 0 2.6-.5 3.5-1.4l.9 1.1c-1.2 1.1-2.7 1.8-4.5 1.8zm3.5-6.7c-.1-1.7-1.2-3.8-3.8-3.8-2.4 0-3.6 2.1-3.7 3.8h7.5zm16.1 6.4l3.7-11.3h-1.9l-2.8 9-2.9-9h-1.6l-2.9 9-2.8-9H138l3.6 11.3h1.7l3-9.1 3 9.1h1.7zm7.4 0V93.8h-1.7v15.7h1.7zm8.7.3c-3.4 0-5.8-2.4-5.8-6 0-3.3 2.3-5.9 5.6-5.9 3.4 0 5.4 2.7 5.4 6.1v.4h-9.1c.1 2.1 1.6 3.9 4 3.9 1.4 0 2.6-.5 3.6-1.4l.8 1.1c-1.1 1.1-2.7 1.8-4.5 1.8zm3.5-6.7c0-1.7-1.2-3.8-3.7-3.8s-3.7 2.1-3.7 3.8h7.4zm6.3 6.4v-8c.5-.9 2-1.8 3.1-1.8h.7v-1.8c-1.5 0-2.9.9-3.8 2.1v-1.8h-1.7v11.3h1.7zm5.4 4.4c.3.1.9.2 1.3.2 1.5 0 2.6-.7 3.3-2.3l5.7-13.6h-1.9l-3.8 9.2-3.7-9.2h-2l4.8 11.4-.8 1.7c-.4 1-.9 1.2-1.7 1.2-.3 0-.7-.1-.9-.2l-.3 1.6zm30.2-4.4l-7.1-8.2 6.5-7.5h-2.5l-6.9 8.1v-8.1h-1.9v15.7h1.9v-5.3l1.6-1.7 5.9 7h2.5zm3-13c.7 0 1.2-.5 1.2-1.1 0-.7-.5-1.2-1.2-1.2s-1.2.5-1.2 1.2c0 .6.5 1.1 1.2 1.1zm.9 13V98.2h-1.8v11.3h1.8zm6.4.3c1 0 1.6-.3 2.1-.8l-.6-1.3c-.2.3-.6.5-1.2.5-.7 0-1.1-.6-1.1-1.5v-7h2.3v-1.5H222v-3.1h-1.8v3.1h-1.8v1.5h1.8v7.4c0 1.7.9 2.7 2.6 2.7z" fill="#202020"/><path fill="#E3E3E3" d="M141 52h344v10H141zm330-24h20v6h-20zm31 0h19v6h-19zm30 0h63v6h-63z"/><path fill="#B4B4B4" d="M0 0h649v16.4H0z"/><path d="M31.598 37.692h-5.4v-12.5h4.9c1.6 0 2.9 1.5 2.9 3.1 0 1.2-.5 2.2-1.5 2.6v.1c1.2 0 2.6 1.5 2.6 3.1 0 2.2-1.7 3.6-3.5 3.6zm-1.4-10.5h-1.7v3.1h1.7c.8 0 1.4-.7 1.4-1.7 0-.7-.6-1.4-1.4-1.4zm.7 5h-2.4v3.6h2.3c.9 0 1.8-.5 1.8-1.8 0-1.2-.9-1.8-1.7-1.8zm15.4 5.5l-3.7-5.3v5.3h-2.4v-12.5h4.3c2.1 0 3.8 1.5 3.8 3.8 0 2-1.5 3.1-3 3.4.2.3 3.9 5.3 3.9 5.3h-2.9zm-2.4-10.5h-1.3v3.8h1.5c.8 0 1.8-.6 1.8-2s-1-1.8-2-1.8zm10.4 10.5v-12.5h2.4v12.5zm12.7-10.3v10.3h-2.4v-10.3h-2.6v-2.2h7.5v2.2zm27.4 10.4c-3.4 0-6-2.9-6-6.3s2.7-6.4 6.2-6.4c1.5 0 3 .7 3 .7v2.6s-1.1-1.1-3-1.1c-2.2 0-3.8 1.9-3.8 4 0 2.3 1.5 4.3 3.8 4.3 1.3 0 2.2-.5 3.1-1.2v2.5c-.3.3-1.7.9-3.3.9zm13.3 0c-3.5 0-6.3-2.9-6.3-6.4 0-3.6 2.8-6.4 6.3-6.4 3.6 0 6.5 2.9 6.5 6.4 0 3.5-3 6.4-6.5 6.4zm0-10.5c-2.3 0-4 1.7-4 4.1 0 2.4 1.7 4.1 4 4.1 2.4 0 4.1-1.8 4.1-4.1 0-2.4-1.8-4.1-4.1-4.1zm-24.1 5.4v-2.3h-3.7v-3.7h-2.4v3.7h-3.7v2.3h3.7v3.7h2.4v-3.7z" fill-rule="nonzero" fill="#B4B4B4"/><path d="M.6 44.6h646.6" stroke="#E3E3E3" stroke-linecap="square"/><path fill="#E3E3E3" d="M26.2 501h394.3v102H26.2z"/><path fill="#B4B4B4" d="M270.3 512.8H410v78.3H270.3z"/><path fill="#FFF" d="M361.167 554.03l-33.6 16.8v-33.7z"/><path fill="#B4B4B4" d="M36.8 576.1h98.6v14.1H36.8z"/><path fill="#FFF" d="M66.1 580.8h41.1v4.7H66.1z"/><path fill="#B4B4B4" d="M35.7 534.4h169.1v4.8H35.7zm0 7.1h162v4.8h-162zm0 7.1h153.6v4.8H35.7zm0 7.2h36.9v4.8H35.7zm0-39.3h153.6v4.8H35.7z"/><path fill="#E3E3E3" d="M29 407h308.4v9.5H29zm-.4 14.3h292.9v9.5H28.6zm0 14.3H337v9.5H28.6zm0 14.3H337v9.5H28.6zm0 14.2h234.6v9.5H28.6z"/></g></svg>