<svg xmlns="http://www.w3.org/2000/svg" width="139" height="139" viewBox="0 0 139 139"><title>All Kits</title><g fill="none" fill-rule="evenodd"><path fill="#FFECEC" d="M0 0h139v139H0z"/><path fill="#FF7371" d="M0 7.3h139v24.8H0zm48.8 30.9h83.9V63H48.8z"/><path fill="#FFECEC" d="M0 0h139v10.9H0z"/><ellipse fill="#FA4A4A" cx="5.2" cy="6" rx="1.2" ry="1.2"/><ellipse fill="#FA4A4A" cx="10.1" cy="6" rx="1.2" ry="1.2"/><ellipse fill="#FA4A4A" cx="15.8" cy="6" rx="1.2" ry="1.2"/><path d="M11.9 60.6H5.7v-4.2h12.4v4.2h-6.2zm-.5-6H5.7v-4.2h11.4v4.2h-5.7zm25.4-10.2H5.7v4.2h36.8v-4.2h-5.7zm0-6H5.7v4.2h36.8v-4.2h-5.7zM11.9 84.6H5.7v-4.2h12.4v4.2h-6.2zM18 74.4H5.7v4.2h18.5v-4.2H18zm-6.1-1.8H5.7v-4.2h12.4v4.2h-6.2zm.1-6H5.7v-4.2H12v4.2zm0 24v-4.2H5.7v4.2H12zm104.5 36.1H113v-2.6h7.1v2.6h-3.6zm-21.9 0H91v-2.6h7.2v2.6h-3.6zm-20.3 0h-3.6v-2.6h7.1v2.6h-3.5zm-22 0h-3.5v-2.6h7.1v2.6h-3.6zm64.2-26.8H113v-2.6h7.1v2.6h-3.6zm-21.9 0H91v-2.6h7.2v2.6h-3.6zm-20.3 0h-3.6v-2.6h7.1v2.6h-3.5zm-22 0h-3.5v-2.6h7.1v2.6h-3.6zm2.2-28.1h-5.7v-4.2h11.4v4.2h-5.7zM12 96.6H5.7v-4.2H12v4.2zm36.8-20.2h19.4v19.9H48.8zm21.9 0h18.6v19.9H70.7zm20.3 0h19.4v19.9H91zm22 0h19.4v19.9H113zm-64.2 26.8h19.4v19.9H48.8zm21.9 0h18.6v19.9H70.7zm20.3 0h19.4v19.9H91zm22 0h19.4v19.9H113zm-64.2 26.9h19.4v8.5H48.8zm21.9 0h18.6v8.5H70.7zm20.3 0h19.4v8.5H91zm22 0h19.4v8.5H113z" fill="#FF7371"/></g></svg>