<svg xmlns="http://www.w3.org/2000/svg" width="139" height="139" viewBox="0 0 139 139"><title>class-page</title><g fill="none" fill-rule="evenodd"><path fill="#DCE8FA" d="M0 0h138.4v138.4H0z"/><path fill="#008EF6" d="M6.5 7.4h126v14.7H6.5z"/><path fill="#DCE8FA" d="M0 0h138.4v10.8H0z"/><ellipse fill="#0347C7" cx="5.2" cy="5.3" rx="1.2" ry="1.2"/><ellipse fill="#0347C7" cx="10.1" cy="5.3" rx="1.2" ry="1.2"/><ellipse fill="#0347C7" cx="15.8" cy="5.3" rx="1.2" ry="1.2"/><path d="M113.8 109.8H93.5v3.8h25.9v-3.8h-5.6zm-6-2.2H93.5v-3.8H113v3.8h-5.2zm4.7-9.8h-19v3.8h24.1v-3.8h-5.1zm-9.3-6h-9.7v3.8h14.9v-3.8h-5.2zm13.9-2.2H93.5v-3.8h28.7v3.8h-5.1zm-90.2 8.2H6.5v3.8h26v-3.8h-5.6zm17-6H6.5v3.8H49v-3.8h-5.1zm0-6H6.5v3.8H49v-3.8h-5.1zm76.7-52.2H93.5v-6.1h36.1v6.1h-9zM43 79.6h-5.6v-3.8h11.2v3.8H43zm-15.4 0h-5.7v-3.8h11.3v3.8h-5.6zm-15.5 0H6.5v-3.8h11.2v3.8h-5.6zm81.4-27.5h19.3v10.8H93.5zm0 67.9h38.7v10.8H93.5zm.5-75.9l.8-.5c.3.7.8 1.2 1.5 1.3v-1.8l-.5-.1c-.1 0-.2 0-.3-.1-.1 0-.3-.1-.4-.1-.2-.1-.3-.2-.4-.3-.1-.2-.2-.3-.3-.5-.1-.2-.1-.4-.1-.6 0-.3 0-.5.2-.8.1-.2.3-.4.5-.5.4-.3.8-.4 1.3-.4v-.9h.7v.9c.4 0 .8.2 1.2.4.4.3.6.5.8.8l-.8.6c-.1-.2-.3-.3-.5-.5-.3-.2-.5-.3-.7-.3v1.5l.4.1c.2 0 .4.1.5.1.2.1.3.1.5.2s.3.2.4.3c.1.1.2.3.3.5 0 .1.1.4.1.6 0 .2-.1.5-.2.7-.1.3-.3.5-.5.6-.3.3-.9.5-1.5.6v.7h-.7v-.8c-.6 0-1-.2-1.4-.5-.5-.3-.8-.7-.9-1.2zm1.3-2.7c0 .3.3.6.9.7h.1v-1.5c-.3.1-.6.2-.7.3-.2.1-.3.3-.3.5zm1.7 3.5c.3 0 .6-.1.8-.2.2-.2.3-.4.3-.7 0-.2-.1-.4-.2-.5-.2-.1-.4-.2-.8-.2l-.1-.1v1.7zm3.1-.8l.8-.5c.4.7.8 1.2 1.5 1.3v-1.8l-.4-.1c-.2 0-.3 0-.4-.1-.1 0-.3-.1-.4-.1-.2-.1-.3-.2-.4-.3-.1-.2-.2-.3-.3-.5-.1-.2-.1-.4-.1-.6 0-.3 0-.5.2-.8.1-.2.3-.4.5-.5.4-.3.8-.4 1.3-.4v-.9h.7v.9c.4 0 .8.2 1.2.4.4.3.7.5.8.8l-.8.6c-.1-.2-.3-.3-.5-.5s-.5-.3-.7-.3v1.5l.4.1c.2 0 .4.1.5.1.2.1.3.1.5.2s.3.2.4.3c.1.1.2.3.3.5 0 .1.1.4.1.6 0 .2-.1.5-.2.7-.1.3-.3.5-.4.6-.4.3-1 .5-1.6.6v.7h-.7v-.8c-.5 0-1-.2-1.4-.5-.5-.3-.7-.7-.9-1.2zm1.3-2.7c0 .3.3.6.9.7h.1v-1.5c-.3.1-.5.2-.7.3-.2.1-.3.3-.3.5zm1.7 3.5c.3 0 .6-.1.8-.2.2-.2.3-.4.3-.7 0-.2-.1-.4-.2-.5-.2-.1-.4-.2-.7-.2l-.2-.1v1.7zM6.5 28.1h81.2v45.6H6.5zm0 77.8h24.7v25.5H6.5zm55.3 0h25.5v25.5H61.8zm-27.7 0h24.7v25.5H34.1z" fill="#008EF6"/></g></svg>