<svg xmlns="http://www.w3.org/2000/svg" width="341" height="292" viewBox="1 0 341 291"><title>add-to-cart</title><g fill="none" fill-rule="evenodd"><path fill="#DBF3F2" d="M0 .6h341.9v290.9H0z"/><path d="M15.2 32.3v-8.6h-1.5v8.6h1.5zm10.1 0v-8.6h-1.5v5.9l-4.4-5.9h-1.5v8.6h1.5v-6.2l4.4 6.2h1.5zm6.1 0V25H34v-1.3h-6.7V25h2.6v7.3h1.5zm11.3 0H41l-1.9-3.2h-1.5v3.2h-1.5v-8.6h3.8c1.6 0 2.8 1.1 2.8 2.7 0 1.5-1 2.3-2.1 2.5l2.1 3.4zm-3-4.5c.8 0 1.4-.6 1.4-1.4 0-.8-.6-1.4-1.4-1.4h-2.1v2.8h2.1zm9.3 4.6c-2.6 0-4.4-1.9-4.4-4.4 0-2.6 1.8-4.4 4.4-4.4 2.5 0 4.3 1.8 4.3 4.4 0 2.5-1.8 4.4-4.3 4.4zm0-1.3c1.7 0 2.8-1.3 2.8-3.1s-1.1-3.1-2.8-3.1c-1.8 0-2.9 1.3-2.9 3.1s1.1 3.1 2.9 3.1zm14.2 1.2V25h2.6v-1.3h-6.7V25h2.6v7.3h1.5zm8.4.1c-2.6 0-4.4-1.9-4.4-4.4 0-2.6 1.8-4.4 4.4-4.4 2.5 0 4.3 1.8 4.3 4.4 0 2.5-1.8 4.4-4.3 4.4zm0-1.3c1.7 0 2.8-1.3 2.8-3.1s-1.1-3.1-2.8-3.1c-1.8 0-2.9 1.3-2.9 3.1s1.1 3.1 2.9 3.1zM90 32.3h-1.7l-.6-1.7h-4l-.6 1.7h-1.7l3.4-8.6h1.8l3.4 8.6zm-2.8-3l-1.5-4.1-1.5 4.1h3zm8.2 3.1c1.7 0 2.8-.9 3.4-1.9l-1.3-.7c-.4.7-1.2 1.3-2.1 1.3-1.7 0-3-1.3-3-3.1s1.3-3.1 3-3.1c.9 0 1.7.5 2.1 1.2l1.3-.6c-.6-1-1.7-1.9-3.4-1.9-2.5 0-4.5 1.8-4.5 4.4 0 2.6 2 4.4 4.5 4.4zm12.1-.1h-1.8l-1.9-3.2h-1.5v3.2h-1.5v-8.6h3.8c1.7 0 2.8 1.1 2.8 2.7 0 1.5-1 2.3-2 2.5l2.1 3.4zm-3.1-4.5c.8 0 1.5-.6 1.5-1.4 0-.8-.7-1.4-1.5-1.4h-2.1v2.8h2.1zm9 4.5v-3.6l3.3-5H115l-2.3 3.7-2.4-3.7h-1.7l3.3 5v3.6h1.5zm10.2 0v-1.4h-3.8v-7.2h-1.5v8.6h5.3zm3.6 0v-8.6h-1.5v8.6h1.5zm6.8.1c1.7 0 2.8-.9 3.4-1.9l-1.3-.7c-.4.7-1.2 1.3-2.1 1.3-1.7 0-3-1.3-3-3.1s1.3-3.1 3-3.1c.9 0 1.7.5 2.1 1.2l1.3-.6c-.6-1-1.7-1.9-3.4-1.9-2.6 0-4.5 1.8-4.5 4.4 0 2.6 1.9 4.4 4.5 4.4zm11-.1h-1.5v-8.6h3.8c1.8 0 2.8 1.2 2.8 2.7 0 1.4-1 2.7-2.8 2.7H145v3.2zm2.1-4.6c.8 0 1.4-.5 1.4-1.3s-.6-1.4-1.4-1.4H145v2.7h2.1zm11.8 4.6h-1.7l-.7-1.7h-3.9l-.6 1.7h-1.7l3.3-8.6h1.9l3.4 8.6zm-2.8-3l-1.5-4.1-1.6 4.1h3.1zm6 3v-8.6h-1.5v8.6h1.5zm10 0v-8.6h-1.5v5.9l-4.3-5.9h-1.6v8.6h1.5v-6.2l4.5 6.2h1.4zm6.2 0V25h2.6v-1.3h-6.7V25h2.6v7.3h1.5zm6.2 0v-8.6H183v8.6h1.5zm10 0v-8.6H193v5.9l-4.4-5.9h-1.5v8.6h1.5v-6.2l4.4 6.2h1.5zm6.7.1c1.5 0 2.7-.6 3.6-1.5v-3.2h-4.1V29h2.6v1.3c-.4.4-1.2.8-2.1.8-1.7 0-2.9-1.3-2.9-3.1s1.2-3.1 2.9-3.1c1 0 1.8.5 2.3 1.1l1.2-.7c-.7-.9-1.8-1.7-3.5-1.7-2.5 0-4.5 1.7-4.5 4.4s2 4.4 4.5 4.4zm14.1 0c1.8 0 2.8-.9 3.5-1.9l-1.3-.7c-.4.7-1.2 1.3-2.2 1.3-1.6 0-2.9-1.3-2.9-3.1s1.3-3.1 2.9-3.1c1 0 1.8.5 2.2 1.2l1.3-.6c-.7-1-1.7-1.9-3.5-1.9-2.5 0-4.4 1.8-4.4 4.4 0 2.6 1.9 4.4 4.4 4.4zm10.6-.1v-1.4h-3.7v-7.2h-1.5v8.6h5.2zm9.9 0h-1.7l-.7-1.7h-3.9l-.6 1.7h-1.7l3.3-8.6h1.9l3.4 8.6zm-2.8-3l-1.5-4.1-1.6 4.1h3.1zm7.3 3.1c2.3 0 3.3-1.2 3.3-2.6 0-3.2-5-2.2-5-3.8 0-.7.6-1.1 1.5-1.1s1.8.3 2.5 1l.8-1.1c-.8-.8-1.9-1.2-3.2-1.2-1.9 0-3.1 1.1-3.1 2.5 0 3.1 5 2 5 3.8 0 .6-.5 1.2-1.7 1.2s-2.2-.6-2.7-1.2l-.9 1.2c.8.8 1.9 1.3 3.5 1.3zm8.4 0c2.3 0 3.3-1.2 3.3-2.6 0-3.2-4.9-2.2-4.9-3.8 0-.7.5-1.1 1.4-1.1.9 0 1.8.3 2.5 1l.8-1.1c-.8-.8-1.8-1.2-3.2-1.2-1.8 0-3.1 1.1-3.1 2.5 0 3.1 5 2 5 3.8 0 .6-.5 1.2-1.7 1.2s-2.1-.6-2.7-1.2l-.9 1.2c.8.8 2 1.3 3.5 1.3z" fill="#4A4A4A"/><path fill="#DBDBDB" d="M15 94.1h314.5v47.2H15z"/><path fill="#525252" d="M301.405 128.49l-8.6-17.3h17.3zM21.9 74.6v-2.2c-2.6-.2-4.6-1.3-5.8-2.7l1.2-1.7c1 1.2 2.6 2.2 4.6 2.4v-6.2c-2.6-.7-5.3-1.6-5.3-4.7 0-2.7 2.2-4.6 5.3-4.8v-2.3h1.6v2.3c2.1.2 3.8 1.1 5.1 2.4l-1.3 1.6c-1.1-1.2-2.4-1.8-3.8-2v5.6c2.6.7 5.4 1.7 5.4 5.1 0 2.3-1.4 4.7-5.4 5v2.2h-1.6zm4.8-7.1c0-1.7-1.4-2.4-3.2-2.9v5.9c2.4-.3 3.2-1.8 3.2-3zm-7.9-8.2c0 1.4 1.4 2 3.1 2.6v-5.3c-1.8.2-3.1 1.2-3.1 2.7zm18.1 12.8V55H35l-4.3 4.4 1.3 1.3 2.7-2.9v14.3h2.2zm8.9.3c-2.2 0-3.7-.9-4.8-2.1l1.1-1.6c.9 1 1.9 1.8 3.7 1.8 3.4 0 4.8-3.5 4.8-6.8v-.6c-.8 1.1-2.7 2.6-4.9 2.6-3 0-5.6-1.8-5.6-5.4 0-3 2.3-5.6 6-5.6 4.8 0 6.6 4.2 6.6 8.8 0 4.6-2.1 8.9-6.9 8.9zm.4-8.5c1.7 0 3.4-1.1 4.3-2.6-.2-2.1-1.3-4.7-4.3-4.7-2.6 0-3.9 2-3.9 3.6 0 2.5 1.7 3.7 3.9 3.7zM57 72.3c.7 0 1.4-.6 1.4-1.4 0-.8-.7-1.4-1.4-1.4-.8 0-1.4.6-1.4 1.4 0 .8.6 1.4 1.4 1.4zm9.9.1c-2.2 0-3.7-.9-4.8-2.1l1.1-1.6c.9 1 1.9 1.8 3.7 1.8 3.4 0 4.8-3.5 4.8-6.8 0-.2 0-.4-.1-.6-.7 1.1-2.6 2.6-4.8 2.6-3.1 0-5.6-1.8-5.6-5.4 0-3 2.3-5.6 6-5.6 4.8 0 6.6 4.2 6.6 8.8 0 4.6-2.2 8.9-6.9 8.9zm.4-8.5c1.7 0 3.4-1.1 4.3-2.6-.2-2.1-1.3-4.7-4.3-4.7-2.6 0-3.9 2-3.9 3.6 0 2.5 1.7 3.7 3.9 3.7zM82 72.4c-2.2 0-3.7-.9-4.7-2.1l1-1.6c.9 1 1.9 1.8 3.7 1.8 3.5 0 4.8-3.5 4.8-6.8v-.6c-.7 1.1-2.6 2.6-4.8 2.6-3.1 0-5.6-1.8-5.6-5.4 0-3 2.2-5.6 6-5.6 4.7 0 6.6 4.2 6.6 8.8 0 4.6-2.2 8.9-7 8.9zm.5-8.5c1.7 0 3.3-1.1 4.3-2.6-.2-2.1-1.4-4.7-4.4-4.7-2.6 0-3.9 2-3.9 3.6 0 2.5 1.8 3.7 4 3.7zm21.3 2.8V65h-6.1v1.7h6.1zm14.4 7.9v-2.2c-2.6-.2-4.6-1.3-5.8-2.7l1.2-1.7c1 1.2 2.6 2.2 4.6 2.4v-6.2c-2.6-.7-5.3-1.6-5.3-4.7 0-2.7 2.2-4.6 5.3-4.8v-2.3h1.6v2.3c2.1.2 3.8 1.1 5 2.4l-1.2 1.6c-1.1-1.2-2.4-1.8-3.8-2v5.6c2.6.7 5.4 1.7 5.4 5.1 0 2.3-1.5 4.7-5.4 5v2.2h-1.6zm4.8-7.1c0-1.7-1.4-2.4-3.2-2.9v5.9c2.4-.3 3.2-1.8 3.2-3zm-7.9-8.2c0 1.4 1.4 2 3.1 2.6v-5.3c-1.8.2-3.1 1.2-3.1 2.7zm19.1 13.1c3.4 0 6.1-2.2 6.1-5.7s-2.6-5.4-5.5-5.4c-1.7 0-3.1.7-4 1.5v-5.9h8.4V55h-10.5v9.2l1.6.5c1.1-1.1 2.4-1.6 3.9-1.6 2.3 0 3.9 1.5 3.9 3.7 0 2.1-1.6 3.7-3.9 3.7-2.1 0-3.6-.8-4.7-2.3l-1.3 1.4c1.2 1.7 3.1 2.8 6 2.8zm14.2 0c3.8 0 6.1-2.1 6.1-4.9 0-2.8-2.4-4.1-4-4.3 1.6-.2 3.7-1.5 3.7-4 0-2.8-2.5-4.5-5.8-4.5-2.6 0-4.6 1.1-5.8 2.6l1.2 1.4c1.2-1.4 2.6-2.1 4.5-2.1 2 0 3.8 1 3.8 2.9 0 2-1.8 2.8-4 2.8h-1.8v2c.3-.1 1.1-.1 1.8-.1 2.5 0 4.3.9 4.3 3.1 0 1.9-1.5 3.2-4 3.2-2.1 0-3.8-.9-4.8-2.3l-1.3 1.4c1.1 1.5 3.2 2.8 6.1 2.8zm10.4-.1c.8 0 1.4-.6 1.4-1.4 0-.8-.6-1.4-1.4-1.4-.7 0-1.4.6-1.4 1.4 0 .8.7 1.4 1.4 1.4zm9.9.1c-2.2 0-3.7-.9-4.7-2.1l1-1.6c.9 1 1.9 1.8 3.7 1.8 3.5 0 4.8-3.5 4.8-6.8v-.6c-.7 1.1-2.6 2.6-4.8 2.6-3.1 0-5.6-1.8-5.6-5.4 0-3 2.2-5.6 6-5.6 4.7 0 6.6 4.2 6.6 8.8 0 4.6-2.2 8.9-7 8.9zm.5-8.5c1.7 0 3.3-1.1 4.3-2.6-.3-2.1-1.4-4.7-4.4-4.7-2.6 0-3.9 2-3.9 3.6 0 2.5 1.8 3.7 4 3.7zm15.2 8.5c-3.4 0-6.1-1.7-6.1-4.7 0-2.2 2-3.8 4.1-4.5-2-.5-3.8-1.8-3.8-4.1 0-3 3-4.4 5.8-4.4 2.9 0 5.9 1.4 5.9 4.4 0 2.3-1.8 3.6-3.8 4.1 2.1.7 4.1 2.3 4.1 4.5 0 2.9-2.8 4.7-6.2 4.7zm0-10c1.1-.2 3.8-.9 3.8-3 0-1.7-1.7-2.8-3.8-2.8-2 0-3.7 1.1-3.7 2.8 0 2.1 2.7 2.8 3.7 3zm0 8.1c2.1 0 4-1.1 4-3 0-2.2-2.9-3.2-4-3.3-1 .1-3.9 1.1-3.9 3.3 0 1.9 1.8 3 3.9 3z"/><path fill="#0BA2B0" d="M15 158.3h314.5v49.3H15z"/><path d="M124.5 189.8h-7.7v-14h7.4c2.7 0 4.1 1.7 4.1 3.5s-1.1 3-2.4 3.3c1.5.2 2.7 1.7 2.7 3.4 0 2.1-1.4 3.8-4.1 3.8zm-.9-8.4c1 0 1.6-.6 1.6-1.5s-.6-1.5-1.6-1.5h-3.8v3h3.8zm.1 5.8c1.1 0 1.8-.6 1.8-1.6 0-.9-.6-1.6-1.8-1.6h-3.9v3.2h3.9zm15.2 2.9c4.3 0 6.4-2.4 6.4-5.9v-8.4h-3.1v8.3c0 2-1.1 3.3-3.3 3.3-2.2 0-3.3-1.3-3.3-3.3v-8.3h-3v8.4c0 3.5 2 5.9 6.3 5.9zm17.8-.3v-5.7l5.4-8.3h-3.4l-3.5 5.6-3.4-5.6h-3.5l5.4 8.3v5.7h3zm28.3 0v-14h-3v8.8l-6.5-8.8h-3.1v14h3v-9.1l6.7 9.1h2.9zm11.2.3c-4.3 0-7.4-3-7.4-7.3 0-4.2 3.1-7.3 7.4-7.3 4.2 0 7.4 3.1 7.4 7.3 0 4.3-3.2 7.3-7.4 7.3zm0-2.7c2.6 0 4.3-2 4.3-4.6 0-2.6-1.7-4.6-4.3-4.6-2.6 0-4.3 2-4.3 4.6 0 2.6 1.7 4.6 4.3 4.6zm24.7 2.4l4.1-14h-3.4l-2.5 10.1-2.6-10.1h-2.4l-2.6 10.1-2.5-10.1h-3.4l4.1 14h3.1l2.5-9.6 2.5 9.6h3.1z" fill="#FFF"/><path d="M328.4 271.8l1-1h-1v1zm-312.4-1h312.4v-47.4H16v47.4zm-1-48.4h314.4v49.4H15v-49.4z" fill="#0BA2B0" fill-rule="nonzero"/><path d="M70.5 254.4c3.8 0 5.7-2 5.7-4.5 0-5.3-8.1-3.8-8.1-6 0-.8.7-1.4 2-1.4 1.4 0 2.9.5 4.1 1.5l1.6-2.2c-1.4-1.3-3.2-2-5.4-2-3.4 0-5.4 2-5.4 4.3 0 5.3 8.1 3.6 8.1 6.1 0 .8-.8 1.5-2.4 1.5-2 0-3.5-.9-4.5-1.9l-1.7 2.4c1.4 1.3 3.3 2.2 6 2.2zm22.7-.3h-3.4l-.9-2.3h-6l-.9 2.3h-3.4l5.4-14h3.8l5.4 14zm-5.1-5l-2.2-6-2.2 6h4.4zm15.2 5l5.5-14h-3.4l-3.9 10.8-3.9-10.8h-3.4l5.4 14h3.7zm18.8 0v-2.6h-6.9v-3.2h6.8v-2.6h-6.8v-3h6.9v-2.6h-9.9v14h9.9zm18.3 0v-11.4h4.1v-2.6h-11.2v2.6h4.1v11.4h3zm14.3.3c-4.3 0-7.4-3-7.4-7.3 0-4.2 3.1-7.3 7.4-7.3 4.2 0 7.3 3.1 7.3 7.3 0 4.3-3.1 7.3-7.3 7.3zm0-2.7c2.6 0 4.3-2 4.3-4.6 0-2.6-1.7-4.6-4.3-4.6-2.6 0-4.3 2-4.3 4.6 0 2.6 1.7 4.6 4.3 4.6zm33.1 2.4l4-14h-3.4l-2.5 10.1-2.6-10.1h-2.4l-2.6 10.1-2.5-10.1h-3.4l4.1 14h3.2l2.4-9.6 2.5 9.6h3.2zm10.5 0v-14h-3v14h3zm9.9.3c3.8 0 5.6-2 5.6-4.5 0-5.3-8-3.8-8-6 0-.8.7-1.4 1.9-1.4 1.5 0 3 .5 4.1 1.5l1.7-2.2c-1.4-1.3-3.2-2-5.5-2-3.3 0-5.3 2-5.3 4.3 0 5.3 8.1 3.6 8.1 6.1 0 .8-.8 1.5-2.5 1.5-1.9 0-3.5-.9-4.4-1.9l-1.7 2.4c1.3 1.3 3.3 2.2 6 2.2zm22.4-.3v-14h-3v5.5H221v-5.5h-3v14h3v-5.9h6.6v5.9h3zm13.7 0v-2.6h-5.9v-11.4h-3v14h8.9zm7.2 0v-14h-3v14h3zm9.9.3c3.8 0 5.6-2 5.6-4.5 0-5.3-8.1-3.8-8.1-6 0-.8.8-1.4 2-1.4 1.5 0 3 .5 4.1 1.5l1.7-2.2c-1.4-1.3-3.3-2-5.5-2-3.3 0-5.3 2-5.3 4.3 0 5.3 8.1 3.6 8.1 6.1 0 .8-.8 1.5-2.5 1.5-1.9 0-3.5-.9-4.5-1.9l-1.6 2.4c1.3 1.3 3.3 2.2 6 2.2zm16-.3v-11.4h4.1v-2.6h-11.2v2.6h4.1v11.4h3z" fill="#0BA2B0"/><path d="M32.8 123.2c3 0 4.1-1.7 4.1-3.4 0-4.2-6.7-2.7-6.7-5.2 0-1.1 1-1.8 2.3-1.8 1.3 0 2.5.4 3.3 1.3l.9-1c-1-1-2.3-1.6-4-1.6-2.3 0-3.9 1.3-3.9 3.1 0 4.1 6.7 2.4 6.7 5.3 0 .9-.7 2-2.7 2-1.6 0-2.8-.8-3.5-1.6l-.9 1.1c1 1 2.4 1.8 4.4 1.8zm9.8 0c-2.4 0-4.1-1.8-4.1-4.3 0-2.4 1.7-4.3 4-4.3 2.5 0 3.9 1.9 3.9 4.4v.3h-6.6c.1 1.5 1.2 2.8 2.9 2.8 1 0 1.9-.4 2.6-1l.6.8c-.8.8-1.9 1.3-3.3 1.3zm2.6-4.9c-.1-1.2-.9-2.7-2.7-2.7-1.8 0-2.6 1.5-2.7 2.7h5.4zm4.5 4.7v-11.3h-1.2V123h1.2zm6.2.2c-2.4 0-4.1-1.8-4.1-4.3 0-2.4 1.7-4.3 4-4.3 2.5 0 3.9 1.9 3.9 4.4v.3h-6.6c.1 1.5 1.2 2.8 3 2.8.9 0 1.8-.4 2.5-1l.6.8c-.8.8-1.9 1.3-3.3 1.3zm2.6-4.9c-.1-1.2-.9-2.7-2.7-2.7-1.8 0-2.6 1.5-2.7 2.7h5.4zm6.9 4.9c1.4 0 2.3-.7 2.9-1.5l-.8-.7c-.5.7-1.2 1-2.1 1-1.7 0-2.8-1.3-2.8-3.1s1.1-3.2 2.8-3.2c.9 0 1.6.3 2.1 1.1l.8-.8c-.6-.8-1.5-1.4-2.9-1.4-2.5 0-4.1 1.9-4.1 4.3s1.6 4.3 4.1 4.3zm6.8 0c.7 0 1.2-.3 1.5-.6l-.4-.9c-.1.2-.5.3-.8.3-.6 0-.8-.4-.8-1v-5.1h1.6v-1.1h-1.6v-2.2h-1.3v2.2H69v1.1h1.4v5.3c0 1.3.6 2 1.8 2z" fill="#525252"/><path fill="#525252" fill-rule="nonzero" d="M306.3 55.6l16.6 16.7 1.5-1.6-16.6-16.6z"/><path fill="#525252" fill-rule="nonzero" d="M322.9 54.1l-16.6 16.6 1.5 1.6 16.6-16.7z"/></g></svg>