<svg xmlns="http://www.w3.org/2000/svg" xmlns:xlink="http://www.w3.org/1999/xlink" width="649" height="624" viewBox="0 0 649 624"><title>Group</title><defs><path id="a" d="M442 242h174.9v27.4H442z"/><mask id="c" x="0" y="0" width="174.9" height="27.4" fill="#fff"><use xlink:href="#a"/></mask><path d="M102.1 419.9h320V564h-395V389h75v30.9z" id="b"/><mask id="d" x="0" y="0" width="395" height="175" fill="#fff"><use xlink:href="#b"/></mask></defs><g fill="none" fill-rule="evenodd"><path fill="#FFF" d="M1 16.5h648v606.6H1z"/><path fill="#B4B4B4" d="M546.782 181.57l-4.8-9.6h9.6z"/><path fill="#E3E3E3" d="M434 127h190.1v153.6H434z"/><path fill="#B4B4B4" d="M478 250h102.4v11.9H478z"/><path fill="#FFF" d="M442 170h174.9v26.2H442z"/><path fill="#525252" d="M442 207h174.9v27.4H442z"/><use stroke="#B4B4B4" mask="url(#c)" stroke-width="2" xlink:href="#a"/><path fill="#B4B4B4" d="M600.782 189.57l-4.8-9.6h9.6zM449 182h29.8v4.8H449z"/><path fill="#FFF" d="M478 215h102.4v11.9H478z"/><path d="M447.7 160.1v-1.9c-2.1-.1-3.7-1-4.8-2.2l1.1-1.3c.8.9 2 1.8 3.7 2v-5.1c-2.2-.6-4.4-1.3-4.4-3.9 0-2.2 1.9-3.7 4.4-3.9v-1.9h1.3v1.9c1.7.2 3.1.9 4.1 1.9l-1 1.3c-.9-.9-2-1.4-3.1-1.6v4.6c2.1.6 4.4 1.4 4.4 4.1 0 1.9-1.2 3.9-4.4 4.1v1.9h-1.3zm3.9-5.8c0-1.4-1.2-2-2.6-2.4v4.8c2-.2 2.6-1.4 2.6-2.4zm-6.4-6.7c0 1.1 1.1 1.6 2.5 2v-4.2c-1.5.1-2.5.9-2.5 2.2zm20 10.4v-1.6h-6.9c3.9-3 6.8-5.6 6.8-8.5 0-2.8-2.3-4.1-4.7-4.1-1.9 0-3.8.8-4.8 2.2l1 1.1c.9-1 2.2-1.8 3.8-1.8 1.5 0 3 .8 3 2.6 0 2.4-2.8 4.7-7.8 8.7v1.4h9.6zm7.3.2c-1.8 0-3.1-.7-3.9-1.6l.8-1.4c.8.9 1.6 1.5 3.1 1.5 2.8 0 3.9-2.9 3.9-5.5v-.6c-.6 1-2.2 2.2-4 2.2-2.5 0-4.6-1.5-4.6-4.5 0-2.4 1.9-4.5 4.9-4.5 4 0 5.5 3.4 5.5 7.2 0 3.8-1.8 7.2-5.7 7.2zm.3-6.9c1.4 0 2.8-.9 3.5-2.1-.1-1.7-1.1-3.9-3.5-3.9-2.1 0-3.2 1.6-3.2 3 0 2 1.4 3 3.2 3zm8.8 6.9c.7 0 1.2-.5 1.2-1.1 0-.7-.5-1.2-1.2-1.2-.6 0-1.1.5-1.1 1.2 0 .6.5 1.1 1.1 1.1zm8.1 0c-1.8 0-3-.7-3.9-1.6l.9-1.4c.7.9 1.6 1.5 3 1.5 2.8 0 4-2.9 4-5.5 0-.2 0-.4-.1-.6-.6 1-2.1 2.2-3.9 2.2-2.5 0-4.6-1.5-4.6-4.5 0-2.4 1.8-4.5 4.9-4.5 3.9 0 5.4 3.4 5.4 7.2 0 3.8-1.8 7.2-5.7 7.2zm.4-6.9c1.4 0 2.7-.9 3.5-2.1-.2-1.7-1.1-3.9-3.5-3.9-2.2 0-3.2 1.6-3.2 3 0 2 1.4 3 3.2 3zm12 6.9c-1.8 0-3-.7-3.9-1.6l.9-1.4c.7.9 1.6 1.5 3 1.5 2.9 0 4-2.9 4-5.5v-.6c-.7 1-2.2 2.2-4 2.2-2.5 0-4.6-1.5-4.6-4.5 0-2.4 1.9-4.5 4.9-4.5 3.9 0 5.4 3.4 5.4 7.2 0 3.8-1.7 7.2-5.7 7.2zm.4-6.9c1.4 0 2.8-.9 3.5-2.1-.2-1.7-1.1-3.9-3.5-3.9-2.2 0-3.2 1.6-3.2 3 0 2 1.4 3 3.2 3zm17.5 2.3v-1.4h-5v1.4h5zm11.8 6.5v-1.9c-2.2-.1-3.8-1-4.8-2.2l1-1.3c.8.9 2.1 1.8 3.8 2v-5.1c-2.2-.6-4.4-1.3-4.4-3.9 0-2.2 1.8-3.7 4.4-3.9v-1.9h1.2v1.9c1.8.2 3.2.9 4.2 1.9l-1.1 1.3c-.8-.9-1.9-1.4-3.1-1.6v4.6c2.2.6 4.5 1.4 4.5 4.1 0 1.9-1.2 3.9-4.5 4.1v1.9h-1.2zm3.9-5.8c0-1.4-1.2-2-2.7-2.4v4.8c2-.2 2.7-1.4 2.7-2.4zm-6.5-6.7c0 1.1 1.1 1.6 2.6 2v-4.2c-1.5.1-2.6.9-2.6 2.2zm15.6 10.7c2.9 0 5-1.8 5-4.7 0-2.9-2.1-4.4-4.4-4.4-1.4 0-2.6.5-3.3 1.2v-4.9h6.8V144h-8.6v7.5l1.3.5c1-.9 2-1.3 3.3-1.3 1.8 0 3.2 1.1 3.2 3 0 1.7-1.4 3-3.3 3-1.7 0-2.9-.7-3.8-1.9l-1.1 1.2c1.1 1.4 2.6 2.3 4.9 2.3zm11.7 0c3.1 0 5-1.7 5-4.1 0-2.2-2-3.3-3.3-3.4 1.3-.3 3-1.3 3-3.3 0-2.4-2-3.7-4.7-3.7-2.2 0-3.8.9-4.8 2.1l1 1.1c1-1.1 2.1-1.7 3.7-1.7 1.7 0 3.1.9 3.1 2.4 0 1.6-1.5 2.3-3.3 2.3h-1.4v1.6h1.4c2.1 0 3.5.7 3.5 2.5 0 1.6-1.2 2.6-3.2 2.6-1.7 0-3.1-.8-4-1.8l-1 1c.9 1.3 2.6 2.4 5 2.4zm8.5-.1c.6 0 1.2-.5 1.2-1.1 0-.7-.6-1.2-1.2-1.2s-1.1.5-1.1 1.2c0 .6.5 1.1 1.1 1.1zm8.1 0c-1.8 0-3-.7-3.9-1.6l.9-1.4c.7.9 1.6 1.5 3 1.5 2.8 0 4-2.9 4-5.5 0-.2 0-.4-.1-.6-.6 1-2.1 2.2-3.9 2.2-2.5 0-4.6-1.5-4.6-4.5 0-2.4 1.8-4.5 4.9-4.5 3.9 0 5.4 3.4 5.4 7.2 0 3.8-1.8 7.2-5.7 7.2zm.4-6.9c1.4 0 2.7-.9 3.5-2.1-.2-1.7-1.1-3.9-3.5-3.9-2.2 0-3.3 1.6-3.3 3 0 2 1.5 3 3.3 3zm12.5 7c-2.8 0-5-1.5-5-3.8 0-1.9 1.6-3.2 3.3-3.7-1.6-.5-3.1-1.6-3.1-3.4 0-2.5 2.4-3.6 4.8-3.6 2.3 0 4.8 1.1 4.8 3.6 0 1.8-1.5 2.9-3.1 3.4 1.7.5 3.3 1.8 3.3 3.7 0 2.3-2.3 3.8-5 3.8zm0-8.2c.8-.2 3-.8 3-2.5 0-1.4-1.3-2.3-3-2.3s-3 .9-3 2.3c0 1.7 2.1 2.3 3 2.5zm0 6.6c1.7 0 3.2-.9 3.2-2.4 0-1.9-2.4-2.6-3.2-2.7-.9.1-3.3.8-3.3 2.7 0 1.5 1.5 2.4 3.3 2.4z" fill="#525252"/><path fill="#E3E3E3" d="M27.1 578.9h393.7v44.6H27.1zm0-450.9h393.7v221.3H27.1z"/><path fill="#FFF" d="M288.1 284.9v-39.4l-37.4-36.1-46.1 46.6-14.2-14.3-28 28.2v16.7z"/><ellipse fill="#FFF" cx="178.9" cy="209.5" rx="19.3" ry="19.5"/><use stroke="#E3E3E3" mask="url(#d)" stroke-width="2" xlink:href="#b"/><path fill="#E3E3E3" d="M40 516h51.6v32.1H40z"/><path fill="#FFF" d="M74.2 539.3v-5.8l-4.9-5.2-6.1 6.8-1.8-2.1-3.7 4.1v2.4z"/><ellipse fill="#FFF" cx="59.9" cy="528.3" rx="2.5" ry="2.8"/><path fill="#E3E3E3" d="M100.7 516h51.6v32.1h-51.6z"/><path fill="#FFF" d="M135.1 539.1v-5.7l-4.9-5.2-6 6.7-1.9-2-3.7 4.1v2.4z"/><ellipse fill="#FFF" cx="120.8" cy="528.2" rx="2.5" ry="2.8"/><path fill="#E3E3E3" d="M160.5 516h51.6v32.1h-51.6z"/><path fill="#FFF" d="M194.9 539.1v-5.7l-4.9-5.2-6.1 6.7-1.8-2-3.7 4.1v2.4z"/><ellipse fill="#FFF" cx="180.6" cy="528.2" rx="2.5" ry="2.8"/><path fill="#B4B4B4" d="M37.8 589.6h111.3v34.1H37.8z"/><path d="M86.2 623.8c0-3.3-2.2-5.7-5.2-5.7-2.9 0-5.3 2.4-5.3 5.7h10.5z" fill="#FFF"/><path fill="#E3E3E3" d="M40 433h308.4v9H40zm0 15h292.9v9H40zm0 14h308v9H40zm0 15h308.4v9H40zm0 14h235v9H40zm0-90h51.6v9.5H40zm75 0h51.6v9.5H115zm72 0h51.6v9.5H187zM28 358.1h29.8v4.8H28zm44 0h29.8v4.8H72zm45 0h29.8v4.8H117z"/><path fill="#B4B4B4" d="M183 591h129v4.8H183zm0 18h139.7v4.8H183zm0 7h129v4.8H183z"/><path d="M40.5 114l-7-8.1 6.4-7.2h-2.4l-6.8 7.9v-7.9h-1.9V114h1.9v-5.2l1.5-1.7 5.9 6.9h2.4zm11.3 0v-7.8c0-2.4-1.2-3.6-3.5-3.6-1.7 0-3.2 1-4 1.9v-1.6h-1.8V114h1.8v-8.1c.6-.9 1.9-1.7 3.3-1.7 1.5 0 2.5.6 2.5 2.5v7.3h1.7zm8.3.3c-3.4 0-5.5-2.6-5.5-5.9 0-3.2 2.1-5.8 5.5-5.8s5.5 2.6 5.5 5.8c0 3.3-2.1 5.9-5.5 5.9zm0-1.6c2.4 0 3.7-2 3.7-4.3 0-2.2-1.3-4.2-3.7-4.2-2.4 0-3.7 2-3.7 4.2 0 2.3 1.3 4.3 3.7 4.3zm11.1 1.6c1 0 1.6-.3 2.1-.7l-.5-1.3c-.3.2-.7.4-1.2.4-.7 0-1.1-.6-1.1-1.4v-6.9h2.2v-1.5h-2.2v-3h-1.8v3h-1.8v1.5h1.8v7.3c0 1.6.9 2.6 2.5 2.6zm6.8 0c1 0 1.6-.3 2-.7l-.5-1.3c-.2.2-.6.4-1.1.4-.8 0-1.1-.6-1.1-1.4v-6.9h2.2v-1.5h-2.2v-3h-1.8v3h-1.8v1.5h1.8v7.3c0 1.6.8 2.6 2.5 2.6zm9 0c-3.4 0-5.7-2.4-5.7-5.9 0-3.2 2.3-5.8 5.5-5.8 3.3 0 5.3 2.6 5.3 6v.4h-9c.2 2.1 1.6 3.9 4 3.9 1.3 0 2.6-.6 3.4-1.5l.9 1.2c-1.1 1.1-2.6 1.7-4.4 1.7zm3.4-6.6c0-1.6-1.1-3.7-3.7-3.7-2.3 0-3.5 2-3.6 3.7h7.3zm14.2 6.3h-1.7v-1.7c-.8 1.2-2.2 2-3.7 2-2.9 0-5-2.2-5-5.8 0-3.6 2.1-5.9 5-5.9 1.5 0 2.8.8 3.7 2v-5.9h1.7V114zm-5-1.3c1.4 0 2.7-.8 3.3-1.7v-5c-.6-1-1.9-1.8-3.3-1.8-2.2 0-3.6 1.8-3.6 4.3 0 2.4 1.4 4.2 3.6 4.2zm17 1.6c2.7 0 4.9-1.6 4.9-4.9V98.7h-1.9v10.7c0 1.9-1.2 3.2-3.1 3.2-1.4 0-2.3-.7-2.9-1.5l-1 1.4c1 1.2 2.4 1.8 4 1.8zm13.4 0c-3.3 0-5.7-2.4-5.7-5.9 0-3.2 2.3-5.8 5.5-5.8 3.4 0 5.3 2.6 5.3 6v.4h-8.9c.1 2.1 1.6 3.9 4 3.9 1.2 0 2.5-.6 3.4-1.5l.8 1.2c-1.1 1.1-2.6 1.7-4.4 1.7zm3.4-6.6c0-1.6-1.1-3.7-3.6-3.7-2.4 0-3.6 2-3.6 3.7h7.2zm15.9 6.3l3.5-11.1H151l-2.7 8.8-2.9-8.8h-1.5l-2.9 8.8-2.7-8.8h-1.8L140 114h1.7l2.9-8.9 2.9 8.9h1.8zm7.2 0V98.7h-1.7V114h1.7zm8.5.3c-3.3 0-5.7-2.4-5.7-5.9 0-3.2 2.3-5.8 5.5-5.8 3.4 0 5.4 2.6 5.4 6v.4h-9c.1 2.1 1.6 3.9 4 3.9 1.2 0 2.5-.6 3.4-1.5l.8 1.2c-1.1 1.1-2.6 1.7-4.4 1.7zm3.5-6.6c-.1-1.6-1.2-3.7-3.7-3.7-2.4 0-3.5 2-3.6 3.7h7.3zm6.2 6.3v-7.9c.5-.9 1.9-1.7 3-1.7h.7v-1.8c-1.6 0-2.8.9-3.7 2.1v-1.8h-1.8V114h1.8zm5.2 4.3c.3.1.9.2 1.3.2 1.4 0 2.6-.6 3.2-2.2l5.6-13.4h-1.9l-3.7 9.1-3.6-9.1h-1.9l4.6 11.2-.7 1.7c-.4.9-.9 1.2-1.7 1.2-.3 0-.7-.1-.9-.2l-.3 1.5zm25.2-4c2.7 0 4.5-1.3 5.8-3.1l-1.6-.9c-.9 1.3-2.5 2.3-4.2 2.3-3.4 0-5.9-2.6-5.9-6.3 0-3.6 2.5-6.2 5.9-6.2 1.7 0 3.3.9 4.2 2.2l1.6-.9c-1.2-1.7-3.1-3-5.8-3-4.4 0-7.9 3.2-7.9 7.9 0 4.8 3.5 8 7.9 8zm9.9-.3V98.7h-1.7V114h1.7zm12.1 0h-1.7v-1.3c-.9 1-2.2 1.6-3.7 1.6-1.8 0-3.8-1.3-3.8-3.7 0-2.5 2-3.7 3.8-3.7 1.6 0 2.8.5 3.7 1.5v-2c0-1.4-1.2-2.3-2.8-2.3-1.3 0-2.4.5-3.4 1.6l-.8-1.2c1.2-1.3 2.6-1.9 4.4-1.9 2.4 0 4.3 1.1 4.3 3.8v7.6zm-4.7-1c1.2 0 2.4-.4 3-1.3v-2.2c-.6-.9-1.8-1.3-3-1.3-1.6 0-2.8 1-2.8 2.4s1.2 2.4 2.8 2.4zm11.8 1.3c2.8 0 4.3-1.5 4.3-3.4 0-4.3-6.9-2.7-6.9-5.1 0-1 1-1.8 2.5-1.8 1.4 0 2.6.6 3.3 1.4l.8-1.2c-.9-.9-2.2-1.6-4.1-1.6-2.7 0-4.1 1.5-4.1 3.2 0 4.1 6.9 2.5 6.9 5.2 0 1.1-1 1.9-2.7 1.9-1.5 0-2.9-.8-3.6-1.6l-.9 1.2c1.1 1.2 2.6 1.8 4.5 1.8zm10.7 0c2.8 0 4.3-1.5 4.3-3.4 0-4.3-6.9-2.7-6.9-5.1 0-1 1-1.8 2.5-1.8 1.4 0 2.6.6 3.3 1.4l.8-1.2c-.9-.9-2.2-1.6-4.1-1.6-2.7 0-4.1 1.5-4.1 3.2 0 4.1 6.8 2.5 6.8 5.2 0 1.1-.9 1.9-2.6 1.9-1.5 0-2.9-.8-3.7-1.6l-.8 1.2c1.1 1.2 2.6 1.8 4.5 1.8z" fill="#202020"/><path fill="#E3E3E3" d="M141 52h344v10H141zm330-24h20v6h-20zm31 0h19v6h-19zm30 0h63v6h-63z"/><path fill="#B4B4B4" d="M0 0h649v16.4H0z"/><path d="M31.6 37.7h-5.4V25.2h4.9c1.6 0 2.9 1.5 2.9 3.1 0 1.2-.5 2.2-1.5 2.6v.1c1.2 0 2.6 1.5 2.6 3.1 0 2.2-1.7 3.6-3.5 3.6zm-1.4-10.5h-1.7v3h1.7c.8 0 1.4-.6 1.4-1.6 0-.7-.6-1.4-1.4-1.4zm.7 5h-2.4v3.6h2.3c.9 0 1.8-.5 1.8-1.8 0-1.2-.9-1.8-1.7-1.8zm15.4 5.5l-3.7-5.3v5.3h-2.4V25.2h4.3c2.1 0 3.8 1.5 3.8 3.8 0 2-1.5 3.1-3 3.4.2.3 3.9 5.3 3.9 5.3h-2.9zm-2.4-10.5h-1.3V31h1.5c.8 0 1.8-.6 1.8-2s-1-1.8-2-1.8zm10.4 10.5V25.2h2.4v12.5zM67 27.4v10.3h-2.4V27.4H62v-2.2h7.5v2.2zm27.4 10.4c-3.4 0-6-2.9-6-6.3s2.7-6.5 6.2-6.5c1.5 0 3 .8 3 .8v2.6s-1.1-1.1-3-1.1c-2.2 0-3.8 1.9-3.8 4 0 2.3 1.5 4.3 3.8 4.3 1.3 0 2.2-.5 3.1-1.2v2.5c-.4.3-1.7.9-3.3.9zm13.3 0c-3.5 0-6.3-2.9-6.3-6.4 0-3.6 2.8-6.4 6.3-6.4 3.6 0 6.5 2.9 6.5 6.4 0 3.5-3 6.4-6.5 6.4zm0-10.5c-2.3 0-4 1.7-4 4.1 0 2.3 1.7 4.1 4 4.1 2.4 0 4.1-1.8 4.1-4.1 0-2.4-1.8-4.1-4.1-4.1zm-24.1 5.4v-2.4h-3.7v-3.6h-2.4v3.6h-3.7v2.4h3.7v3.7h2.4v-3.7z" fill="#B4B4B4" fill-rule="nonzero"/><path d="M.6 44.6h646.6" stroke="#E3E3E3" stroke-linecap="square"/></g></svg>