<svg xmlns="http://www.w3.org/2000/svg" width="141" height="139" viewBox="0 0 141 139"><title>all-classes</title><g fill="none" fill-rule="evenodd"><path fill="#DCE8FA" d="M0 0h140.4v138.4H0z"/><path fill="#008EF6" d="M0 7.4h140.4v24.7H0z"/><path fill="#DCE8FA" d="M0 0h140.4v10.8H0z"/><ellipse fill="#0347C7" cx="5.3" cy="5.3" rx="1.2" ry="1.2"/><ellipse fill="#0347C7" cx="10.2" cy="5.3" rx="1.2" ry="1.2"/><ellipse fill="#0347C7" cx="16" cy="5.3" rx="1.2" ry="1.2"/><path fill="#008EF6" d="M116.3 57.1h19.6v10.8h-19.6zm-55.5-3.4H40.4v3.8h26v-3.8h-5.6zm17-6H40.4v3.8H83v-3.8h-5.2zm39-4.4l.8-.5c.3.7.8 1.1 1.5 1.3v-1.8l-.4-.1c-.2 0-.3-.1-.4-.1-.1 0-.3-.1-.4-.2-.2-.1-.3-.2-.4-.3-.1-.1-.2-.2-.3-.4-.1-.2-.1-.4-.1-.6 0-.3 0-.6.2-.8.1-.2.3-.4.5-.6.4-.2.8-.3 1.3-.4V38h.7v.9c.4 0 .8.2 1.2.4.4.2.6.5.8.8l-.8.6c-.1-.2-.3-.4-.5-.5-.2-.2-.5-.3-.7-.4v1.6l.4.1c.2 0 .4 0 .5.1.2 0 .3.1.5.2s.3.2.4.3c.1.1.2.3.3.4 0 .2.1.4.1.7 0 .2-.1.5-.2.7-.1.2-.3.4-.5.6-.3.3-.9.5-1.5.5v.8h-.7V45c-.5-.1-1-.2-1.4-.5-.5-.3-.8-.7-.9-1.2zm1.3-2.8c0 .4.3.6.9.7l.1.1v-1.5c-.3 0-.5.1-.7.3-.2.1-.3.2-.3.4zm1.7 3.6c.3 0 .6-.1.8-.3.2-.1.3-.3.3-.6 0-.2-.1-.4-.2-.5-.2-.1-.4-.2-.7-.3h-.2v1.7zm3.1-.8l.9-.5c.3.7.7 1.1 1.4 1.3v-1.8l-.4-.1c-.2 0-.3-.1-.4-.1-.1 0-.2-.1-.4-.2s-.3-.2-.4-.3c-.1-.1-.2-.2-.3-.4-.1-.2-.1-.4-.1-.6 0-.3.1-.6.2-.8.1-.2.3-.4.5-.6.4-.2.8-.3 1.3-.4V38h.7v.9c.4 0 .9.2 1.2.4.4.2.7.5.8.8l-.8.6c-.1-.2-.3-.4-.5-.5-.2-.2-.5-.3-.7-.4v1.6l.4.1c.2 0 .4 0 .5.1.2 0 .4.1.5.2.2.1.3.2.4.3.1.1.2.3.3.4 0 .2.1.4.1.7 0 .2-.1.5-.2.7-.1.2-.3.4-.4.6-.4.3-.9.5-1.6.5v.8h-.7V45c-.5-.1-1-.2-1.4-.5-.4-.3-.7-.7-.9-1.2zm1.3-2.8c0 .4.3.6.9.7l.1.1v-1.5c-.3 0-.5.1-.7.3-.2.1-.3.2-.3.4zm1.7 3.6c.3 0 .6-.1.8-.3.2-.1.3-.3.3-.6 0-.2 0-.4-.2-.5-.2-.1-.4-.2-.7-.3h-.2v1.7zm-119.3-6h29.8v29.4H6.6zm87 .4H40.4v6.1h62.2v-6.1h-9zm22.7 54.2h19.6v10.8h-19.6zm-55.5-3.4H40.4v3.8h26v-3.8h-5.6zm17-6H40.4v3.8H83v-3.8h-5.2zm39-4.4l.8-.6c.3.8.8 1.2 1.5 1.4v-1.9h-.4c-.2-.1-.3-.1-.4-.1-.1-.1-.3-.1-.4-.2-.2-.1-.3-.2-.4-.3-.1-.1-.2-.3-.3-.4-.1-.2-.1-.4-.1-.7 0-.2 0-.5.2-.7.1-.3.3-.5.5-.6.4-.2.8-.3 1.3-.4v-.8h.7v.8c.4.1.8.2 1.2.5.4.2.6.5.8.8l-.8.6c-.1-.2-.3-.4-.5-.6-.2-.1-.5-.2-.7-.3V77h.4c.2.1.4.1.5.2.2 0 .3.1.5.2s.3.2.4.3c.1.1.2.2.3.4 0 .2.1.4.1.6 0 .3-.1.5-.2.8-.1.2-.3.4-.5.6-.3.3-.9.5-1.5.5v.7h-.7v-.7c-.5-.1-1-.3-1.4-.6-.5-.3-.8-.6-.9-1.1zm1.3-2.8c0 .4.3.6.9.7h.1v-1.4c-.3 0-.5.1-.7.2-.2.2-.3.3-.3.5zm1.7 3.6c.3 0 .6-.1.8-.3.2-.1.3-.4.3-.7 0-.1-.1-.3-.2-.4-.2-.1-.4-.2-.7-.3h-.2v1.7zm3.1-.8l.9-.6c.3.8.7 1.2 1.4 1.4v-1.9h-.4c-.2-.1-.3-.1-.4-.1-.1-.1-.2-.1-.4-.2s-.3-.2-.4-.3c-.1-.1-.2-.3-.3-.4-.1-.2-.1-.4-.1-.7 0-.2.1-.5.2-.7.1-.3.3-.5.5-.6.4-.2.8-.3 1.3-.4v-.8h.7v.8c.4.1.9.2 1.2.5.4.2.7.5.8.8l-.8.6c-.1-.2-.3-.4-.5-.6-.2-.1-.5-.2-.7-.3V77h.4c.2.1.4.1.5.2.2 0 .4.1.5.2.2.1.3.2.4.3.1.1.2.2.3.4 0 .2.1.4.1.6 0 .3-.1.5-.2.8-.1.2-.3.4-.4.6-.4.3-.9.5-1.6.5v.7h-.7v-.7c-.5-.1-1-.3-1.4-.6-.4-.3-.7-.6-.9-1.1zm1.3-2.8c0 .4.3.6.9.7h.1v-1.4c-.3 0-.5.1-.7.2-.2.2-.3.3-.3.5zm1.7 3.6c.3 0 .6-.1.8-.3.2-.1.3-.4.3-.7 0-.1 0-.3-.2-.4-.2-.1-.4-.2-.7-.3h-.2v1.7zM6.6 73.6h29.8V103H6.6zm87 .5H40.4v6.1h62.2v-6.1h-9zm22.7 54.1h19.6v10h-19.6zm-55.5-3.3H40.4v3.8h26v-3.8h-5.6zm17-6H40.4v3.8H83v-3.8h-5.2zm39-4.4l.8-.6c.3.8.8 1.2 1.5 1.3v-1.8l-.4-.1h-.4c-.1-.1-.3-.1-.4-.2-.2-.1-.3-.2-.4-.3-.1-.1-.2-.3-.3-.5-.1-.1-.1-.3-.1-.6s0-.5.2-.8c.1-.2.3-.4.5-.5.4-.2.8-.4 1.3-.4v-.9h.7v.9c.4.1.8.2 1.2.4.4.3.6.5.8.9l-.8.6c-.1-.2-.3-.4-.5-.6-.2-.1-.5-.3-.7-.3v1.5l.4.1c.2.1.4.1.5.1.2.1.3.2.5.2.2.1.3.2.4.3.1.2.2.3.3.5 0 .2.1.4.1.6 0 .3-.1.5-.2.8-.1.2-.3.4-.5.6-.3.3-.9.5-1.5.5v.7h-.7v-.7c-.5-.1-1-.3-1.4-.6-.5-.3-.8-.7-.9-1.1zm1.3-2.8c0 .3.3.6.9.7h.1V111c-.3 0-.5.1-.7.2-.2.1-.3.3-.3.5zm1.7 3.6c.3-.1.6-.1.8-.3.2-.2.3-.4.3-.7 0-.2-.1-.3-.2-.4-.2-.2-.4-.2-.7-.3h-.2v1.7zm3.1-.8l.9-.6c.3.8.7 1.2 1.4 1.3v-1.8l-.4-.1h-.4c-.1-.1-.2-.1-.4-.2s-.3-.2-.4-.3c-.1-.1-.2-.3-.3-.5-.1-.1-.1-.3-.1-.6s.1-.5.2-.8c.1-.2.3-.4.5-.5.4-.2.8-.4 1.3-.4v-.9h.7v.9c.4.1.9.2 1.2.4.4.3.7.5.8.9l-.8.6c-.1-.2-.3-.4-.5-.6-.2-.1-.5-.3-.7-.3v1.5l.4.1c.2.1.4.1.5.1.2.1.4.2.5.2.2.1.3.2.4.3.1.2.2.3.3.5 0 .2.1.4.1.6 0 .3-.1.5-.2.8-.1.2-.3.4-.4.6-.4.3-.9.5-1.6.5v.7h-.7v-.7c-.5-.1-1-.3-1.4-.6-.4-.3-.7-.7-.9-1.1zm1.3-2.8c0 .3.3.6.9.7h.1V111c-.3 0-.5.1-.7.2-.2.1-.3.3-.3.5zm1.7 3.6c.3-.1.6-.1.8-.3.2-.2.3-.4.3-.7 0-.2 0-.3-.2-.4-.2-.2-.4-.2-.7-.3h-.2v1.7zM6.6 109.2h29.8v28.6H6.6zm87 .4H40.4v6.1h62.2v-6.1h-9z"/></g></svg>